<?xml version="1.0" encoding="UTF-8" standalone="no"?>
<!-- Created with Inkscape (http://www.inkscape.org/) -->

<svg
   xmlns:dc="http://purl.org/dc/elements/1.1/"
   xmlns:cc="http://creativecommons.org/ns#"
   xmlns:rdf="http://www.w3.org/1999/02/22-rdf-syntax-ns#"
   xmlns:svg="http://www.w3.org/2000/svg"
   xmlns="http://www.w3.org/2000/svg"
   version="1.1"
   width="48"
   height="48"
   id="svg2">
  <defs
     id="defs4">
    <filter
       color-interpolation-filters="sRGB"
       id="filter4056">
      <feFlood
         result="flood"
         flood-color="rgb(0,0,0)"
         flood-opacity="0.5"
         id="feFlood4058" />
      <feComposite
         in2="SourceGraphic"
         operator="in"
         in="flood"
         result="composite1"
         id="feComposite4060" />
      <feGaussianBlur
         result="blur"
         stdDeviation="4.6"
         id="feGaussianBlur4062" />
      <feOffset
         result="offset"
         dy="4"
         dx="4"
         id="feOffset4064" />
      <feComposite
         in2="offset"
         operator="over"
         in="SourceGraphic"
         result="composite2"
         id="feComposite4066" />
    </filter>
  </defs>
  <metadata
     id="metadata7">
    <rdf:RDF>
      <cc:Work
         rdf:about="">
        <dc:format>image/svg+xml</dc:format>
        <dc:type
           rdf:resource="http://purl.org/dc/dcmitype/StillImage" />
        <dc:title></dc:title>
      </cc:Work>
    </rdf:RDF>
  </metadata>
  <g
     transform="translate(0,-252)"
     id="layer2">
    <g
       transform="matrix(0.17436843,0,0,0.17436843,-0.56964284,252.7403)"
       id="g4245">
      <path
         d="m 235.03125,39.0625 c -1.07285,-0.0382 -2.00227,0.161695 -2.65625,0.71875 -1.50834,1.284798 -12.67737,15.716195 -27.125,33.8125 -0.57818,-0.969564 -1.2789,-1.985014 -2.09375,-3.0625 -6.15459,-8.13831 -18.32104,-13.59211 -42,-11.375 -23.67896,2.21711 -46.49014,18.719073 -71.0625,48 -24.572366,29.28093 -55.53125,119.9375 -55.53125,119.9375 0,0 0.533919,0.0281 0.59375,0.0312 -0.01613,0.011 -0.28125,0.1875 -0.28125,0.1875 0,0 0.321708,-0.17522 0.34375,-0.1875 3.622671,0.19245 95.2322,4.856 135.125,-15.125 40.6961,-20.38337 67.19497,-56.50709 71.5,-80.46875 4.30503,-23.96165 -8.01718,-38.47781 -16.21875,-42.25 -3.29527,-1.515612 -6.36657,-2.571744 -9.1875,-3.0625 17.58293,-20.433604 30.90445,-37.440207 30.8125,-39.125 -0.15813,-2.897399 -7.56972,-7.865709 -12.21875,-8.03125 z"
         id="path3006-3"
         style="fill:#000000;fill-opacity:1;stroke:#ffffff;stroke-width:19.26887894;stroke-miterlimit:4;stroke-opacity:1;stroke-dasharray:none;filter:url(#filter4056)" />
      <path
         d="m 34.567496,227.09554 c 0,0 30.955555,-90.64362 55.527921,-119.92455 24.572363,-29.280927 47.382813,-45.804017 71.061773,-48.021127 23.67896,-2.21711 35.84921,3.24973 42.0038,11.38804 6.1546,8.1383 5.19317,12.99733 2.63041,17.61159 4.72661,-3.58629 11.6392,-2.64921 19.84076,1.12298 8.20157,3.77219 20.53028,18.281937 16.22525,42.243587 -4.30503,23.96166 -30.81066,60.09118 -71.50676,80.47455 -40.6961,20.38335 -135.783154,15.10493 -135.783154,15.10493"
         id="path3006"
         style="fill:#73a834;fill-opacity:1;stroke:none;display:inline" />
      <path
         d="m 34.88004,227.31888 c 0,0 85.65367,-47.67983 119.24966,-76.16593 33.596,-28.4861 93.31929,-100.502177 93.12467,-104.068207 -0.19462,-3.56603 -11.39462,-10.26034 -14.88249,-7.28938 -3.48787,2.97096 -57.41031,74.937237 -88.50946,104.680407 -31.09915,29.74316 -108.98238,82.84311 -108.98238,82.84311 z"
         id="path3033"
         style="fill:#5b8429;fill-opacity:1;stroke:none;display:inline" />
      <path
         d="m 190.02238,94.921273 c 0,0 -11.10939,-12.94727 -18.42767,-18.04899 -7.31828,-5.10173 -27.10229,-9.8995 -27.10229,-9.8995 0,0 18.18607,6.80389 24.98097,12.37437 6.7949,5.57048 17.72057,18.7561 17.72057,18.7561 z"
         id="path3803"
         style="fill:#5b8429;fill-opacity:1;stroke:none;display:inline" />
      <path
         d="m 176.95348,123.70024 c 0,0 -14.81136,-18.49011 -25.27469,-24.908397 -10.46332,-6.41831 -35.89005,-12.45421 -35.89005,-12.45421 0,0 23.14207,8.55973 32.85709,15.567747 9.71502,7.00803 24.26371,25.798 24.26371,25.798 z"
         id="path3803-3"
         style="fill:#5b8429;fill-opacity:1;stroke:none;display:inline" />
      <path
         d="m 107.55346,178.72589 c 0,0 -6.12202,-10.67945 -16.585352,-17.09774 -10.46332,-6.41831 -22.29386,-8.33289 -22.29386,-8.33289 0,0 9.89943,5.14552 19.61445,12.15354 9.71502,7.00803 15.220822,17.28023 15.220822,17.28023 z"
         id="path3803-3-2"
         style="fill:#5b8429;fill-opacity:1;stroke:none;display:inline" />
      <path
         d="m 80.872737,197.82827 c 0,0 -1.60939,-6.94727 -8.92767,-12.04899 -7.31828,-5.10173 -15.10229,-7.1495 -15.10229,-7.1495 0,0 6.18607,4.05389 12.98097,9.62437 6.7949,5.57048 7.47057,12.2561 7.47057,12.2561 z"
         id="path3803-5"
         style="fill:#5b8429;fill-opacity:1;stroke:none;display:inline" />
      <path
         d="m 152.20474,138.31205 c 0,0 -14.37202,-16.17945 -24.83535,-22.59774 -10.46332,-6.41831 -28.043862,-9.83289 -28.043862,-9.83289 0,0 15.649432,6.64552 25.364452,13.65354 9.71502,7.00803 23.47082,22.78023 23.47082,22.78023 z"
         id="path3803-3-2-5"
         style="fill:#5b8429;fill-opacity:1;stroke:none;display:inline" />
      <path
         d="m 134.52707,161.29302 c 0,0 -14.62202,-16.42945 -25.08535,-22.84774 -10.463322,-6.41831 -27.793858,-9.58289 -27.793858,-9.58289 0,0 15.399426,6.39552 25.114448,13.40354 9.71502,7.00803 23.72082,23.03023 23.72082,23.03023 z"
         id="path3803-3-2-6"
         style="fill:#5b8429;fill-opacity:1;stroke:none;display:inline" />
      <path
         d="m 196.89487,102.40291 c 0,0 14.05702,9.667 19.90927,16.40019 5.85226,6.7332 13.23019,24.39356 13.23019,24.39356 0,0 -9.20241,-15.85782 -15.46501,-22.02068 -6.2626,-6.16285 -20.53703,-15.62179 -20.53703,-15.62179 z"
         id="path3803-51"
         style="fill:#5b8429;fill-opacity:1;stroke:none;display:inline" />
      <path
         d="m 172.17844,117.82374 c 0,0 18.16837,15.2043 24.36091,25.8028 6.19255,10.5985 12.93204,32.14877 12.93204,32.14877 0,0 -9.31171,-19.32024 -16.10988,-29.18325 -6.79818,-9.863 -25.27197,-24.81112 -25.27197,-24.81112 z"
         id="path3803-3-20"
         style="fill:#5b8429;fill-opacity:1;stroke:none;display:inline" />
      <path
         d="m 108.07881,179.8606 c 0,0 9.08436,6.22462 13.77813,17.56676 4.69378,11.34214 3.97492,17.82656 3.97492,17.82656 0,0 -2.77546,-5.08519 -8.16925,-15.78102 -5.3938,-10.69585 -12.92284,-15.24789 -12.92284,-15.24789 z"
         id="path3803-3-2-7"
         style="fill:#5b8429;fill-opacity:1;stroke:none;display:inline" />
      <path
         d="m 80.01995,196.95692 c 0,0 4.10792,4.93143 7.99586,12.96067 3.88794,8.02924 -0.06332,14.78838 -0.06332,14.78838 0,0 1.7189,-5.4964 -2.71424,-13.08246 -4.43313,-7.58605 -8.42943,-11.55424 -8.42943,-11.55424 z"
         id="path3803-5-3"
         style="fill:#5b8429;fill-opacity:1;stroke:none;display:inline" />
      <path
         d="m 152.89611,140.4486 c 0,0 17.08672,13.28057 24.17707,23.30069 7.09035,10.0201 10.14997,30.08901 10.14997,30.08901 0,0 -6.15703,-17.93016 -13.78678,-27.16493 -7.62977,-9.23476 -24.26971,-21.92713 -24.26971,-21.92713 z"
         id="path3803-3-2-5-5"
         style="fill:#5b8429;fill-opacity:1;stroke:none;display:inline" />
      <path
         d="m 132.37036,159.77823 c 0,0 16.18828,13.40743 21.73602,24.35724 5.54776,10.9498 8.29507,24.73002 8.29507,24.73002 0,0 -6.12435,-12.11776 -12.32062,-22.3696 -6.19627,-10.25184 -22.02867,-23.01203 -22.02867,-23.01203 z"
         id="path3803-3-2-6-5"
         style="fill:#5b8429;fill-opacity:1;stroke:none;display:inline" />
    </g>
  </g>
</svg>
