<?xml version="1.0" encoding="UTF-8" standalone="no"?>
<!-- Created with Inkscape (http://www.inkscape.org/) -->

<svg
   xmlns:dc="http://purl.org/dc/elements/1.1/"
   xmlns:cc="http://creativecommons.org/ns#"
   xmlns:rdf="http://www.w3.org/1999/02/22-rdf-syntax-ns#"
   xmlns:svg="http://www.w3.org/2000/svg"
   xmlns="http://www.w3.org/2000/svg"
   xmlns:sodipodi="http://sodipodi.sourceforge.net/DTD/sodipodi-0.dtd"
   xmlns:inkscape="http://www.inkscape.org/namespaces/inkscape"
   width="252.97697"
   height="224.05704"
   id="svg2"
   version="1.1"
   inkscape:version="0.48.4 r9939"
   sodipodi:docname="logo-mono.svg"
   inkscape:export-filename="/home/sam/Documents/projects/hex-browser/images/icon128.png"
   inkscape:export-xdpi="38.400002"
   inkscape:export-ydpi="38.400002">
  <defs
     id="defs4">
    <filter
       id="filter4056"
       inkscape:label="Drop Shadow"
       color-interpolation-filters="sRGB">
      <feFlood
         id="feFlood4058"
         flood-opacity="0.5"
         flood-color="rgb(0,0,0)"
         result="flood" />
      <feComposite
         id="feComposite4060"
         in2="SourceGraphic"
         in="flood"
         operator="in"
         result="composite1" />
      <feGaussianBlur
         id="feGaussianBlur4062"
         stdDeviation="4.6"
         result="blur" />
      <feOffset
         id="feOffset4064"
         dx="4"
         dy="4"
         result="offset" />
      <feComposite
         id="feComposite4066"
         in2="offset"
         in="SourceGraphic"
         operator="over"
         result="composite2" />
    </filter>
  </defs>
  <sodipodi:namedview
     id="base"
     pagecolor="#f3f3f3"
     bordercolor="#666666"
     borderopacity="1.0"
     inkscape:pageopacity="1"
     inkscape:pageshadow="2"
     inkscape:zoom="2.0000001"
     inkscape:cx="155.18574"
     inkscape:cy="49.848682"
     inkscape:document-units="px"
     inkscape:current-layer="g4245"
     showgrid="false"
     inkscape:window-width="1916"
     inkscape:window-height="1181"
     inkscape:window-x="1920"
     inkscape:window-y="15"
     inkscape:window-maximized="0"
     fit-margin-top="2"
     fit-margin-left="2"
     fit-margin-right="2"
     fit-margin-bottom="2" />
  <metadata
     id="metadata7">
    <rdf:RDF>
      <cc:Work
         rdf:about="">
        <dc:format>image/svg+xml</dc:format>
        <dc:type
           rdf:resource="http://purl.org/dc/dcmitype/StillImage" />
        <dc:title></dc:title>
      </cc:Work>
    </rdf:RDF>
  </metadata>
  <g
     inkscape:groupmode="layer"
     id="layer2"
     inkscape:label="Leaf"
     transform="translate(-21.350308,-37.361053)">
    <g
       id="g4245"
       transform="matrix(1.0772752,0,0,1.0772752,-2.4033026,5.7321421)">
      <path
         style="font-size:medium;font-style:normal;font-variant:normal;font-weight:normal;font-stretch:normal;text-indent:0;text-align:start;text-decoration:none;line-height:normal;letter-spacing:normal;word-spacing:normal;text-transform:none;direction:ltr;block-progression:tb;writing-mode:lr-tb;text-anchor:start;baseline-shift:baseline;color:#000000;fill:#e4e4e4;fill-opacity:1;fill-rule:nonzero;stroke:none;stroke-width:15.50000000000000000;marker:none;visibility:visible;display:inline;overflow:visible;enable-background:accumulate;font-family:Sans;-inkscape-font-specification:Sans"
         d="m 228.92221,32.508115 c -0.73406,0.479072 -1.64096,1.429385 -1.64096,1.429385 -1.02047,0.880016 -1.24116,1.218988 -1.78125,1.84375 -0.5587,0.6463 -1.20116,1.436093 -1.96875,2.375 -1.53518,1.877814 -3.53585,4.380586 -5.9375,7.40625 -3.2695,4.119011 -8.03399,10.113176 -12.53125,15.78125 -8.86903,-7.820806 -23.33502,-11.899675 -44.625,-9.90625 -26.77282,2.506794 -51.11236,20.758231 -76.28125,50.75 -13.787678,16.42968 -27.307419,46.40085 -38.21875,72.96875 -10.911331,26.5679 -18.71875,49.4375 -18.71875,49.4375 l -3.3125,9.6875 10.25,0.5625 c 0,0 0.496397,0.0262 0.59375,0.0312 l 0.34375,-6.5625 0.0625,0.125 -0.34375,6.4375 c 1.955552,0.10389 25.956712,1.32707 54.71875,0 28.76204,-1.32707 61.99509,-4.77509 84.28125,-15.9375 42.76982,-21.42203 70.61216,-57.95603 75.65625,-86.03125 4.77557,-26.58069 -7.7755,-44.312327 -19.96875,-50.3125 5.44558,-6.485037 11.25877,-13.349745 15.0625,-18.1875 2.80994,-3.57381 5.06638,-6.554005 6.71875,-8.90625 0.82618,-1.176123 1.51364,-2.164844 2.09375,-3.15625 0.29005,-0.495703 0.54901,-0.980071 0.84375,-1.65625 0.29474,-0.676179 0.93539,-1.206936 0.78125,-4.03125 -0.21249,-3.893402 -1.91927,-5.673629 -3.3125,-7.21875 -1.39323,-1.545121 -2.93165,-2.743079 -4.59375,-3.84375 -3.3242,-2.201342 -6.8476,-4.105574 -11.78125,-4.28125 0,0 -2.26326,-0.219456 -3.35451,0.0059 -1.09125,0.225374 -2.30172,0.710675 -3.03578,1.189747 z M 236.03125,47.375 c 0.4549,0.161147 0.76769,0.338225 1.46875,0.65625 -1.34934,1.861384 -2.89144,3.971755 -5.125,6.8125 -5.41362,6.885281 -13.08322,16.167966 -21.8125,26.3125 L 201.65625,91.5 l 13.4375,2.34375 c 1.907,0.331759 4.4051,1.145904 7.28125,2.46875 4.02146,1.849608 15.59731,12.95158 11.84375,33.84375 -3.56597,19.8481 -28.72137,55.56154 -67.34375,74.90625 -17.60664,8.81859 -50.14091,13.02421 -78.0625,14.3125 -19.743034,0.91094 -34.178161,0.61701 -43.375,0.3125 3.096138,-8.65862 7.792436,-21.45582 14.84375,-38.625 10.711202,-26.08061 24.965312,-56.08625 35.75,-68.9375 23.97583,-28.570085 45.25865,-43.322574 65.84375,-45.25 22.25911,-2.084166 30.89829,2.79603 35.09375,8.34375 0.69117,0.913947 1.23844,1.695525 1.625,2.34375 l 5.71875,9.625 7,-8.75 c 7.243,-9.072178 13.66729,-17.240354 18.4375,-23.25 2.38511,-3.004823 4.34653,-5.463818 5.78125,-7.21875 0.21086,-0.257919 0.31339,-0.367993 0.5,-0.59375 z"
         id="path3006-3"
         inkscape:connector-curvature="0"
         sodipodi:nodetypes="zcssscssscccccccssscsssssssczzccscccsssscsssscccssc" />
      <path
         sodipodi:nodetypes="czzzczzzc"
         inkscape:connector-curvature="0"
         id="path3006"
         d="m 34.567496,227.09554 c 0,0 30.955555,-90.64362 55.527921,-119.92455 24.572363,-29.280927 47.382813,-45.804017 71.061773,-48.021127 23.67896,-2.21711 35.84921,3.24973 42.0038,11.38804 6.1546,8.1383 5.19317,12.99733 2.63041,17.61159 4.72661,-3.58629 11.6392,-2.64921 19.84076,1.12298 8.20157,3.77219 20.53028,18.281937 16.22525,42.243587 -4.30503,23.96166 -30.81066,60.09118 -71.50676,80.47455 -40.6961,20.38335 -135.783154,15.10493 -135.783154,15.10493"
         style="fill:#f3f3f3;fill-opacity:1;stroke:none;display:inline" />
      <path
         style="fill:#ececec;fill-opacity:1;stroke:none;display:inline"
         d="m 250.21875,47.8125 c -0.91584,0.04425 -1.69416,0.281165 -2.28125,0.78125 -2.20241,1.876011 -23.10661,29.303952 -46.75,58.125 -2.61818,-2.98867 -11.9739,-13.463747 -18.75,-18.1875 C 174.5537,83.035283 153.25,77.875 153.25,77.875 c 0,0 19.58627,7.34281 26.90625,13.34375 6.40498,5.250822 15.77208,16.23037 18.125,19.03125 -5.6838,6.88827 -11.44611,13.79656 -17.15625,20.40625 -5.65569,-6.31833 -13.63723,-14.52035 -20.125,-18.5 C 149.72812,105.24196 122.34375,98.75 122.34375,98.75 c 0,0 24.90925,9.20044 35.375,16.75 6.12593,4.419 13.96206,13.14482 19.46875,19.65625 -5.80502,6.62302 -11.48244,12.87243 -16.75,18.34375 -2.78603,-3.07591 -15.57476,-16.9601 -25.625,-23.125 -11.27188,-6.91429 -30.21875,-10.59375 -30.21875,-10.59375 0,0 16.878,7.16918 27.34375,14.71875 9.36028,6.75213 21.61018,20.42846 24.21875,23.375 -1.21985,1.21783 -2.42994,2.38693 -3.59375,3.5 -4.2046,4.02127 -9.19198,8.44266 -14.71875,13.09375 C 132.32892,168.70486 122.97556,159.46057 115.5,154.875 104.22812,147.96071 85.5625,144.5625 85.5625,144.5625 c 0,0 16.5655,6.88793 27.03125,14.4375 6.70115,4.83394 15.27658,13.59625 20.59375,19.3125 -6.72309,5.52922 -14.05844,11.34129 -21.59375,17.125 -2.67366,-3.83819 -8.17026,-10.79093 -16,-15.59375 C 84.321875,172.92946 71.5625,170.875 71.5625,170.875 c 0,0 10.6905,5.54418 21.15625,13.09375 6.745022,4.86559 11.58329,11.14812 14.1875,15.03125 -7.756495,5.89198 -15.604198,11.67468 -23.15625,17.1875 -1.200849,-2.67566 -3.728874,-6.87753 -8.65625,-10.3125 -7.883802,-5.49597 -16.25,-7.71875 -16.25,-7.71875 0,0 6.648773,4.37406 13.96875,10.375 4.412816,3.61764 6.406341,7.66281 7.3125,10.3125 -24.624041,17.88404 -44.9375,31.78125 -44.9375,31.78125 0,0 21.079028,-11.76749 47,-27.34375 1.697508,2.01306 4.345498,5.52074 7.21875,10.4375 4.775712,8.17227 2.9375,14.09375 2.9375,14.09375 0,0 4.250881,-7.2878 0.0625,-15.9375 -2.314604,-4.78004 -4.671258,-8.4979 -6.34375,-10.90625 8.31511,-5.02744 17.00441,-10.43326 25.625,-15.90625 2.49463,1.85492 8.23086,6.787 12.65625,15.5625 5.8106,11.52235 8.8125,17 8.8125,17 0,0 0.77524,-7.00014 -4.28125,-19.21875 -3.35288,-8.10197 -8.75125,-13.71865 -12.03125,-16.625 8.21192,-5.27913 16.23091,-10.56326 23.625,-15.71875 5.56273,4.91694 14.41217,13.28207 18.8125,20.5625 6.67509,11.04405 13.28125,24.125 13.28125,24.125 0,0 -2.96104,-14.8603 -8.9375,-26.65625 -3.8807,-7.6595 -12.55342,-16.34961 -18.1875,-21.5625 6.88788,-4.92827 13.10235,-9.65704 18.1875,-13.96875 0.51644,-0.43789 1.06612,-0.91837 1.59375,-1.375 5.94945,4.89275 14.29787,12.13771 19.21875,18.09375 8.21934,9.94839 14.84375,29.28125 14.84375,29.28125 0,0 -3.29924,-21.64309 -10.9375,-32.4375 -4.4774,-6.32749 -12.59234,-13.78532 -18.59375,-18.9375 5.77412,-5.2462 12.04226,-11.37258 18.53125,-18 6.16064,5.52515 13.68836,12.75736 17.625,18.46875 7.3235,10.62518 17.34375,31.4375 17.34375,31.4375 0,0 -7.26642,-23.2075 -13.9375,-34.625 -3.60917,-6.17707 -10.94957,-13.7353 -16.96875,-19.4375 5.91451,-6.14299 11.91589,-12.62954 17.84375,-19.15625 4.94142,3.4103 13.8329,9.75198 18.5625,14.40625 6.74654,6.6391 16.65625,23.71875 16.65625,23.71875 0,0 -7.94551,-19.02774 -14.25,-26.28125 -4.41903,-5.08422 -13.09215,-11.67243 -17.9375,-15.1875 26.90651,-29.873147 50.87804,-59.716442 50.75,-62.0625 -0.1769,-3.241346 -8.80445,-8.895218 -13.75,-8.65625 z"
         transform="matrix(0.92826791,0,0,0.92826791,2.2309087,-5.3209636)"
         id="path3033"
         inkscape:connector-curvature="0" />
    </g>
  </g>
</svg>
